<?xml version="1.0" encoding="utf-8"?><!-- Uploaded to: SVG Repo, www.svgrepo.com, Generator: SVG Repo Mixer Tools -->
<svg fill="#000000" width="800px" height="800px" viewBox="0 0 24 24" 
id="pipe-3" data-name="Flat Color" xmlns="http://www.w3.org/2000/svg" class="icon flat-color"><path id="primary" d="M5,14a4,4,0,0,1,4-4h6V3h4v7a4,4,0,0,1-4,4H9v7H5Z" style="fill: rgb(0, 0, 0);"></path><path id="secondary" d="M9,22H5a1,1,0,0,1,0-2H9a1,1,0,0,1,0,2ZM19,4H15a1,1,0,0,1,0-2h4a1,1,0,0,1,0,2Z" 
style="fill: #a5a5a5;"></path></svg>