<?xml version="1.0" encoding="utf-8"?><!-- Uploaded to: SVG Repo, www.svgrepo.com, Generator: SVG Repo Mixer Tools -->
<svg fill="#000000" width="800px" height="800px" viewBox="0 0 24 24"
 id="pipe" data-name="Flat Color" xmlns="http://www.w3.org/2000/svg" class="icon flat-color">
 <path id="primary" d="M19,14a4,4,0,0,0-4-4H9V3H5v7a4,4,0,0,0,4,4h6v7h4Z" style="fill: rgb(0, 0, 0);"></path><path id="secondary" d="M14,21a1,1,0,0,1,1-1h4a1,1,0,0,1,0,2H15A1,1,0,0,1,14,21ZM4,3A1,1,0,0,1,5,2H9A1,1,0,0,1,9,4H5A1,1,0,0,1,4,3Z" 
style="fill: #a5a5a5;"></path></svg>